<svg xmlns="http://www.w3.org/2000/svg" viewBox="0 0 192 192" aria-hidden="true"><g><g><rect fill="#8AB4F8" height="44" transform="matrix(0.7071 -0.7071 0.7071 0.7071 -53.4335 129)" width="93.34" x="82.33" y="107"/><path d="M111.56,45.56L80.44,14.44l-66,66c-8.59,8.59-8.59,22.52,0,31.11l66,66l31.11-31.11L61.11,96L111.56,45.56 z" fill="#4285F4"/><circle cx="96" cy="162" fill="#1967D2" r="22"/><path d="M177.56,80.44l-66-66c-8.59-8.59-22.52-8.59-31.11,0c-8.59,8.59-8.59,22.52,0,31.11l66,66 c8.59,8.59,22.52,8.59,31.11,0C186.15,102.96,186.15,89.04,177.56,80.44z" fill="#8AB4F8"/></g></g></svg>
