<svg xmlns="http://www.w3.org/2000/svg" viewBox="0 0 24 24" aria-hidden="true"><path fill="currentColor" d="M22.282 9.821a5.985 5.985 0 0 0-.516-4.911 6.046 6.046 0 0 0-6.51-2.9A6.065 6.065 0 0 0 4.981 4.182a5.985 5.985 0 0 0-3.998 2.9 6.046 6.046 0 0 0 .743 7.096 5.98 5.98 0 0 0 .511 4.911 6.051 6.051 0 0 0 6.515 2.9A5.985 5.985 0 0 0 13.26 24a6.056 6.056 0 0 0 5.772-4.206 5.989 5.989 0 0 0 3.997-2.9 6.056 6.056 0 0 0-.747-7.073Zm-9.022 12.608a4.476 4.476 0 0 1-2.877-1.041l4.92-2.839a.795.795 0 0 0 .393-.681v-6.737l2.02 1.169a.071.071 0 0 1 .038.052v5.583a4.504 4.504 0 0 1-4.494 4.494Zm-9.661-4.125a4.471 4.471 0 0 1-.534-3.014l4.925 2.843a.771.771 0 0 0 .78 0l5.843-3.368v2.332a.08.08 0 0 1-.033.062L9.74 19.95a4.499 4.499 0 0 1-6.141-1.646ZM2.341 7.896a4.485 4.485 0 0 1 2.365-1.973V11.6a.766.766 0 0 0 .388.677l5.814 3.354-2.02 1.169a.076.076 0 0 1-.071 0l-4.83-2.787A4.504 4.504 0 0 1 2.34 7.896Zm16.596 3.856-5.833-3.388 2.015-1.164a.076.076 0 0 1 .071 0l4.83 2.791a4.494 4.494 0 0 1-.676 8.104v-5.677a.79.79 0 0 0-.407-.666Zm2.011-3.024-4.916-2.866a.776.776 0 0 0-.785 0L9.409 9.23V6.897a.066.066 0 0 1 .028-.061l4.83-2.787a4.499 4.499 0 0 1 6.681 4.679ZM8.307 12.863l-2.02-1.164a.08.08 0 0 1-.038-.057V6.074a4.499 4.499 0 0 1 7.376-3.453l-4.92 2.838a.795.795 0 0 0-.393.681Zm1.097-2.365 2.602-1.5 2.607 1.5v2.999l-2.597 1.5-2.607-1.5Z"/></svg>
