<svg xmlns="http://www.w3.org/2000/svg" viewBox="0 0 24 24" aria-hidden="true"><path fill="currentColor" d="M22.398 7.09h-2.311V.067l-7.509 6.354V.158h-1.156v6.196L4.49 0v7.09H1.602v10.397H4.49V24l6.932-6.359v6.2h1.156v-6.046l6.932 6.18v-6.488h2.888V7.09Zm-3.466-4.531V7.09h-5.355l5.355-4.531ZM5.646 2.626l4.869 4.464H5.646V2.626ZM2.758 16.332V8.245h7.847L4.49 14.36v1.972H2.758Zm2.888 5.04v-6.534l5.776-5.776v7.011l-5.776 5.299Zm12.708.025-5.776-5.151V9.062l5.776 5.776v6.559Zm2.888-5.065H19.51V14.36l-6.115-6.115h7.847v8.087Z"/></svg>
